<svg width="27" height="27" viewBox="0 0 27 27" fill="none" xmlns="http://www.w3.org/2000/svg">
<path d="M24.3369 7.47775C23.9835 6.65941 23.4739 5.91784 22.8366 5.29455C22.1989 4.6694 21.447 4.1726 20.6218 3.83117C19.7661 3.47572 18.8483 3.29378 17.9218 3.29592C16.6219 3.29592 15.3536 3.65187 14.2515 4.32424C13.9878 4.48508 13.7373 4.66174 13.5 4.85422C13.2627 4.66174 13.0122 4.48508 12.7485 4.32424C11.6464 3.65187 10.3781 3.29592 9.07822 3.29592C8.14219 3.29592 7.23516 3.47521 6.37822 3.83117C5.55029 4.17394 4.8041 4.66701 4.16338 5.29455C3.52528 5.91714 3.01556 6.65889 2.66309 7.47775C2.29658 8.32941 2.10938 9.23381 2.10938 10.1646C2.10938 11.0426 2.28867 11.9575 2.64463 12.8883C2.94258 13.6661 3.36973 14.473 3.91553 15.2877C4.78037 16.5771 5.96953 17.9218 7.44609 19.285C9.89297 21.5446 12.3161 23.1056 12.4189 23.1689L13.0438 23.5697C13.3207 23.7463 13.6767 23.7463 13.9535 23.5697L14.5784 23.1689C14.6813 23.103 17.1018 21.5446 19.5513 19.285C21.0278 17.9218 22.217 16.5771 23.0818 15.2877C23.6276 14.473 24.0574 13.6661 24.3527 12.8883C24.7087 11.9575 24.888 11.0426 24.888 10.1646C24.8906 9.23381 24.7034 8.32941 24.3369 7.47775Z" fill="#EF5466"/>
</svg>
