<svg width="25" height="21" viewBox="0 0 25 21" fill="none" xmlns="http://www.w3.org/2000/svg">
<path d="M24.3952 4.18185C24.0073 3.36351 23.448 2.62194 22.7486 1.99865C22.0486 1.3735 21.2234 0.876703 20.3177 0.535273C19.3786 0.179825 18.3713 -0.00211408 17.3544 1.85332e-05C15.9277 1.85332e-05 14.5358 0.355976 13.3262 1.02834C13.0368 1.18918 12.7619 1.36584 12.5014 1.55832C12.241 1.36584 11.9661 1.18918 11.6767 1.02834C10.4671 0.355976 9.07511 1.85332e-05 7.64844 1.85332e-05C6.62113 1.85332e-05 5.62564 0.179316 4.68514 0.535273C3.77647 0.878046 2.95751 1.37111 2.25431 1.99865C1.55399 2.62124 0.994552 3.36299 0.607708 4.18185C0.205463 5.03352 0 5.93791 0 6.86867C0 7.7467 0.196782 8.66164 0.587452 9.5924C0.914457 10.3702 1.38326 11.1771 1.98229 11.9918C2.93147 13.2812 4.2366 14.6259 5.85715 15.9891C8.54264 18.2488 11.2021 19.8097 11.315 19.873L12.0008 20.2738C12.3046 20.4504 12.6953 20.4504 12.9992 20.2738L13.685 19.873C13.7979 19.8071 16.4544 18.2488 19.1428 15.9891C20.7634 14.6259 22.0685 13.2812 23.0177 11.9918C23.6167 11.1771 24.0884 10.3702 24.4125 9.5924C24.8032 8.66164 25 7.7467 25 6.86867C25.0029 5.93791 24.7974 5.03352 24.3952 4.18185V4.18185Z" fill="#191922"/>
</svg>
