<svg width="23" height="21" viewBox="0 0 23 21" fill="none" xmlns="http://www.w3.org/2000/svg">
<path d="M22.3369 4.47775C21.9835 3.65941 21.4739 2.91784 20.8366 2.29455C20.1989 1.6694 19.447 1.1726 18.6218 0.831171C17.7661 0.475723 16.8483 0.293784 15.9218 0.295917C14.6219 0.295917 13.3536 0.651874 12.2515 1.32424C11.9878 1.48508 11.7373 1.66174 11.5 1.85422C11.2627 1.66174 11.0122 1.48508 10.7485 1.32424C9.64639 0.651874 8.37812 0.295917 7.07822 0.295917C6.14219 0.295917 5.23516 0.475214 4.37822 0.831171C3.55029 1.17394 2.8041 1.66701 2.16338 2.29455C1.52528 2.91714 1.01556 3.65889 0.663086 4.47775C0.296582 5.32941 0.109375 6.23381 0.109375 7.16457C0.109375 8.0426 0.288672 8.95754 0.644629 9.8883C0.942578 10.6661 1.36973 11.473 1.91553 12.2877C2.78037 13.5771 3.96953 14.9218 5.44609 16.285C7.89297 18.5447 10.3161 20.1056 10.4189 20.1689L11.0438 20.5697C11.3207 20.7463 11.6767 20.7463 11.9535 20.5697L12.5784 20.1689C12.6813 20.103 15.1018 18.5447 17.5513 16.285C19.0278 14.9218 20.217 13.5771 21.0818 12.2877C21.6276 11.473 22.0574 10.6661 22.3527 9.8883C22.7087 8.95754 22.888 8.0426 22.888 7.16457C22.8906 6.23381 22.7034 5.32941 22.3369 4.47775V4.47775Z" fill="#191922"/>
</svg>
  