<svg width="23" height="21" viewBox="0 0 23 21" fill="none" xmlns="http://www.w3.org/2000/svg">
<path d="M21.5342 4.47775C21.2069 3.65941 20.7351 2.91784 20.145 2.29455C19.5545 1.6694 18.8583 1.1726 18.0942 0.831171C17.3019 0.475723 16.4522 0.293784 15.5942 0.295917C14.3906 0.295917 13.2163 0.651874 12.1958 1.32424C11.9517 1.48508 11.7197 1.66174 11.5 1.85422C11.2803 1.66174 11.0483 1.48508 10.8042 1.32424C9.78369 0.651874 8.60937 0.295917 7.40576 0.295917C6.53906 0.295917 5.69922 0.475214 4.90576 0.831171C4.13916 1.17394 3.44824 1.66701 2.85498 2.29455C2.26415 2.91714 1.79218 3.65889 1.46582 4.47775C1.12646 5.32941 0.953125 6.23381 0.953125 7.16457C0.953125 8.0426 1.11914 8.95754 1.44873 9.8883C1.72461 10.6661 2.12012 11.473 2.62549 12.2877C3.42627 13.5771 4.52734 14.9218 5.89453 16.285C8.16016 18.5447 10.4038 20.1056 10.499 20.1689L11.0776 20.5697C11.334 20.7463 11.6636 20.7463 11.9199 20.5697L12.4985 20.1689C12.5938 20.103 14.835 18.5447 17.103 16.285C18.4702 14.9218 19.5713 13.5771 20.3721 12.2877C20.8774 11.473 21.2754 10.6661 21.5488 9.8883C21.8784 8.95754 22.0444 8.0426 22.0444 7.16457C22.0469 6.23381 21.8735 5.32941 21.5342 4.47775V4.47775Z" fill="#EF5466"/>
</svg>
