<svg width="25" height="25" viewBox="0 0 25 25" fill="none" xmlns="http://www.w3.org/2000/svg">
<path  d="M12.5 24.6264L12.0588 24.2118C2.57353 15.5055 0 12.4376 0 7.46256C0 3.31669 2.94118 0 6.61765 0C9.63235 0 11.3235 1.9071 12.5 3.39961C13.6765 1.9071 15.3676 0 18.3824 0C22.0588 0 25 3.31669 25 7.46256C25 12.4376 22.4265 15.5055 12.9412 24.2118L12.5 24.6264ZM6.61765 1.65835C3.75 1.65835 1.47059 4.22878 1.47059 7.46256C1.47059 11.6913 3.82353 14.5105 12.5 22.4706C21.1765 14.5105 23.5294 11.6913 23.5294 7.46256C23.5294 4.22878 21.25 1.65835 18.3824 1.65835C15.8088 1.65835 14.4118 3.39961 13.3088 4.8092L12.5 5.88713L11.6912 4.8092C10.5882 3.39961 9.19118 1.65835 6.61765 1.65835Z" fill="#696969"/>
</svg>
