<svg width="25" height="30" viewBox="0 0 25 30" fill="none" xmlns="http://www.w3.org/2000/svg">
<path d="M1.25 12.0054C1.58152 12.0054 1.89946 12.1027 2.13388 12.2759C2.3683 12.449 2.5 12.6839 2.5 12.9289V14.7758C2.5 16.7352 3.55357 18.6144 5.42893 19.9999C7.3043 21.3854 9.84783 22.1638 12.5 22.1638C15.1522 22.1638 17.6957 21.3854 19.5711 19.9999C21.4464 18.6144 22.5 16.7352 22.5 14.7758V12.9289C22.5 12.6839 22.6317 12.449 22.8661 12.2759C23.1005 12.1027 23.4185 12.0054 23.75 12.0054C24.0815 12.0054 24.3995 12.1027 24.6339 12.2759C24.8683 12.449 25 12.6839 25 12.9289V14.7758C25 17.0652 23.849 19.273 21.7703 20.9709C19.6916 22.6688 16.8333 23.7356 13.75 23.9646V27.7047H21.25C21.5815 27.7047 21.8995 27.802 22.1339 27.9752C22.3683 28.1484 22.5 28.3833 22.5 28.6282C22.5 28.8731 22.3683 29.108 22.1339 29.2812C21.8995 29.4544 21.5815 29.5517 21.25 29.5517H3.75C3.41848 29.5517 3.10054 29.4544 2.86612 29.2812C2.6317 29.108 2.5 28.8731 2.5 28.6282C2.5 28.3833 2.6317 28.1484 2.86612 27.9752C3.10054 27.802 3.41848 27.7047 3.75 27.7047H11.25V23.9646C8.16671 23.7356 5.30844 22.6688 3.2297 20.9709C1.15096 19.273 -3.89292e-05 17.0652 9.87516e-10 14.7758V12.9289C9.87516e-10 12.6839 0.131696 12.449 0.366117 12.2759C0.600537 12.1027 0.918479 12.0054 1.25 12.0054Z" fill="#FFF"/>
<path d="M17.5 14.7759C17.5 15.7556 16.9732 16.6951 16.0355 17.3879C15.0978 18.0806 13.8261 18.4698 12.5 18.4698C11.1739 18.4698 9.90214 18.0806 8.96446 17.3879C8.02678 16.6951 7.5 15.7556 7.5 14.7759V5.54095C7.5 4.56125 8.02678 3.62167 8.96446 2.92892C9.90214 2.23617 11.1739 1.84698 12.5 1.84698C13.8261 1.84698 15.0978 2.23617 16.0355 2.92892C16.9732 3.62167 17.5 4.56125 17.5 5.54095V14.7759ZM12.5 0C10.5109 0 8.60322 0.583777 7.1967 1.62291C5.79018 2.66204 5 4.0714 5 5.54095V14.7759C5 16.2454 5.79018 17.6548 7.1967 18.6939C8.60322 19.733 10.5109 20.3168 12.5 20.3168C14.4891 20.3168 16.3968 19.733 17.8033 18.6939C19.2098 17.6548 20 16.2454 20 14.7759V5.54095C20 4.0714 19.2098 2.66204 17.8033 1.62291C16.3968 0.583777 14.4891 0 12.5 0V0Z" fill="#FFF"/>
</svg>
