<svg width="13" height="22" viewBox="0 0 13 22" fill="none" xmlns="http://www.w3.org/2000/svg">
<path d="M3.13465 20.6484C2.80366 20.649 2.4829 20.5351 2.22804 20.3263C2.0846 20.2087 1.96603 20.0643 1.87912 19.9014C1.79221 19.7384 1.73867 19.5601 1.72156 19.3767C1.70445 19.1932 1.72412 19.0083 1.77943 18.8324C1.83474 18.6565 1.9246 18.4931 2.04388 18.3515L8.39017 10.8447L2.27054 3.32382C2.15287 3.18056 2.06499 3.01572 2.01197 2.83878C1.95894 2.66184 1.94181 2.47628 1.96156 2.29277C1.9813 2.10926 2.03754 1.93142 2.12703 1.76946C2.21652 1.60751 2.3375 1.46464 2.48302 1.34907C2.62959 1.22157 2.80123 1.12539 2.98718 1.06659C3.17312 1.00778 3.36935 0.987607 3.56356 1.00733C3.75776 1.02706 3.94574 1.08626 4.11571 1.18122C4.28567 1.27618 4.43395 1.40484 4.55123 1.55915L11.3933 9.96234C11.6017 10.2129 11.7156 10.5273 11.7156 10.8517C11.7156 11.1761 11.6017 11.4904 11.3933 11.741L4.31041 20.1442C4.16831 20.3137 3.98779 20.4477 3.7835 20.5353C3.57922 20.6229 3.35692 20.6616 3.13465 20.6484Z" fill="white"/>
<path d="M1.91108 20.713L1.91117 20.7131C2.25215 20.9924 2.67942 21.1457 3.12026 21.1484C3.41492 21.1636 3.70936 21.1111 3.98056 20.9948C4.25629 20.8766 4.50052 20.6955 4.69317 20.4659C4.6933 20.4658 4.69343 20.4656 4.69356 20.4655L11.7756 12.0633L11.7756 12.0633L11.7778 12.0607C12.0604 11.7207 12.2156 11.2934 12.2156 10.8517C12.2156 10.4108 12.0611 9.98442 11.7796 9.64482L4.94384 1.24944C4.7856 1.04328 4.58671 0.871622 4.35958 0.744724C4.12984 0.616371 3.87604 0.536501 3.61408 0.509893C3.35214 0.483286 3.0874 0.510481 2.83641 0.589861C2.58896 0.668118 2.35991 0.795507 2.16332 0.964509C1.97022 1.11972 1.80915 1.31092 1.6894 1.52764C1.56783 1.74764 1.49131 1.98949 1.46443 2.23928C1.43755 2.48907 1.46088 2.74161 1.53301 2.98231C1.60502 3.22261 1.72418 3.44615 1.88339 3.64023C1.88365 3.64054 1.88391 3.64086 1.88417 3.64118L7.74059 10.8386L1.66205 18.0287L1.66156 18.0293C1.49981 18.2212 1.37768 18.4431 1.30245 18.6824C1.22722 18.9217 1.20043 19.1734 1.22372 19.4231C1.247 19.6728 1.31987 19.9153 1.43795 20.1367C1.55601 20.358 1.71688 20.5538 1.91108 20.713Z" stroke="white" stroke-opacity="0.5"/>
</svg>
